<svg id="adobe_express_1_" data-name="adobe_express (1)" xmlns="http://www.w3.org/2000/svg" xmlns:xlink="http://www.w3.org/1999/xlink" width="190" height="190" viewBox="0 0 190 190">
  <defs>
    <clipPath id="clip-path">
      <path id="합치기_1" data-name="합치기 1" d="M182.4,190v-7.6H190V190Zm-22.8,0v-7.6h7.6V190Zm-7.6,0v-7.6h7.6V190Zm-7.6,0v-7.6H152V190Zm-7.6,0v-7.6h7.6V190Zm-7.6,0v-7.6h7.6V190Zm-7.6,0v-7.6h7.6V190Zm-7.6,0v-7.6h7.6V190Zm-15.2,0v-7.6h7.6V190Zm-7.6,0v-7.6h7.6V190ZM0,190V136.8H53.2V190Zm7.6-7.6h38v-38H7.6Zm174.8,0v-7.6H190v7.6Zm-15.2,0v-7.6h7.6v7.6Zm-15.2,0v-7.6h7.6v7.6Zm-15.2,0v-7.6h7.6v7.6Zm-15.2,0v-7.6h7.6v7.6Zm-15.2,0v-7.6H114v7.6Zm-15.2,0v-7.6h7.6v7.6Zm-22.8,0v-7.6H76v7.6Zm-7.6,0v-7.6h7.6v7.6Zm121.6-7.6v-7.6H190v7.6Zm-7.6,0v-7.6h7.6v7.6Zm-7.6,0v-7.6h7.6v7.6Zm-7.6,0v-7.6h7.6v7.6Zm-22.8,0v-7.6h7.6v7.6Zm-7.6,0v-7.6h7.6v7.6Zm-7.6,0v-7.6h7.6v7.6Zm-15.2,0v-7.6H114v7.6Zm-15.2,0v-7.6h7.6v7.6Zm-7.6,0v-7.6h7.6v7.6Zm-22.8,0v-7.6h7.6v7.6Zm-30.4,0v-7.6H38v7.6Zm-7.6,0v-7.6h7.6v7.6Zm-7.6,0v-7.6h7.6v7.6Zm167.2-7.6v-7.6H190v7.6Zm-22.8,0v-7.6h7.6v7.6Zm-7.6,0v-7.6h7.6v7.6Zm-30.4,0v-7.6h7.6v7.6Zm-38,0v-7.6h7.6v7.6Zm-53.2,0v-7.6H38v7.6Zm-7.6,0v-7.6h7.6v7.6Zm-7.6,0v-7.6h7.6v7.6Zm167.2-7.6V152H190v7.6Zm-7.6,0V152h7.6v7.6Zm-7.6,0V152h7.6v7.6Zm-7.6,0V152h7.6v7.6Zm-7.6,0V152h7.6v7.6Zm-7.6,0V152H152v7.6Zm-7.6,0V152h7.6v7.6Zm-7.6,0V152h7.6v7.6Zm-7.6,0V152h7.6v7.6Zm-7.6,0V152h7.6v7.6Zm-7.6,0V152H114v7.6Zm-7.6,0V152h7.6v7.6Zm-7.6,0V152h7.6v7.6Zm-60.8,0V152H38v7.6Zm-7.6,0V152h7.6v7.6Zm-7.6,0V152h7.6v7.6ZM182.4,152v-7.6H190V152ZM152,152v-7.6h7.6V152Zm-30.4,0v-7.6h7.6V152Zm-7.6,0v-7.6h7.6V152Zm-15.2,0v-7.6h7.6V152Zm76-7.6v-7.6h7.6v7.6Zm-7.6,0v-7.6h7.6v7.6Zm-7.6,0v-7.6h7.6v7.6Zm-7.6,0v-7.6h7.6v7.6Zm-15.2,0v-7.6h7.6v7.6Zm-15.2,0v-7.6h7.6v7.6Zm-22.8,0v-7.6h7.6v7.6Zm-7.6,0v-7.6h7.6v7.6Zm83.6-7.6v-7.6h7.6v7.6Zm-7.6,0v-7.6h7.6v7.6Zm-15.2,0v-7.6h7.6v7.6Zm-30.4,0v-7.6h7.6v7.6Zm-7.6,0v-7.6h7.6v7.6Zm-30.4,0v-7.6h7.6v7.6Zm-7.6,0v-7.6h7.6v7.6Zm-7.6,0v-7.6H76v7.6Zm98.8-7.6v-7.6h7.6v7.6Zm-7.6,0v-7.6h7.6v7.6Zm-7.6,0v-7.6h7.6v7.6Zm-7.6,0v-7.6H152v7.6Zm-7.6,0v-7.6h7.6v7.6Zm-7.6,0v-7.6h7.6v7.6Zm-7.6,0v-7.6h7.6v7.6Zm-15.2,0v-7.6H114v7.6Zm-30.4,0v-7.6h7.6v7.6Zm-15.2,0v-7.6h7.6v7.6Zm-7.6,0v-7.6h7.6v7.6Zm-7.6,0v-7.6h7.6v7.6Zm-7.6,0v-7.6h7.6v7.6Zm-7.6,0v-7.6H38v7.6Zm-15.2,0v-7.6h7.6v7.6Zm-7.6,0v-7.6h7.6v7.6Zm136.8-7.6V114H152v7.6Zm-15.2,0V114h7.6v7.6Zm-30.4,0V114h7.6v7.6Zm-15.2,0V114h7.6v7.6Zm-15.2,0V114H76v7.6Zm-7.6,0V114h7.6v7.6Zm-7.6,0V114h7.6v7.6Zm-15.2,0V114h7.6v7.6Zm-15.2,0V114h7.6v7.6ZM0,121.6V114H7.6v7.6ZM182.4,114v-7.6H190V114ZM152,114v-7.6h7.6V114Zm-15.2,0v-7.6h7.6V114Zm-15.2,0v-7.6h7.6V114Zm-22.8,0v-7.6h7.6V114Zm-7.6,0v-7.6h7.6V114Zm-22.8,0v-7.6H76V114Zm-22.8,0v-7.6h7.6V114Zm-15.2,0v-7.6H38V114Zm-7.6,0v-7.6h7.6V114ZM0,114v-7.6H7.6V114Zm182.4-7.6V98.8H190v7.6Zm-7.6,0V98.8h7.6v7.6Zm-7.6,0V98.8h7.6v7.6Zm-22.8,0V98.8H152v7.6Zm-15.2,0V98.8h7.6v7.6Zm-7.6,0V98.8h7.6v7.6Zm-45.6,0V98.8h7.6v7.6Zm-7.6,0V98.8H76v7.6Zm-7.6,0V98.8h7.6v7.6Zm-22.8,0V98.8h7.6v7.6Zm-30.4,0V98.8h7.6v7.6Zm-7.6,0V98.8H7.6v7.6Zm167.2-7.6V91.2h7.6v7.6Zm-7.6,0V91.2h7.6v7.6Zm-53.2,0V91.2H114v7.6Zm-7.6,0V91.2h7.6v7.6ZM76,98.8V91.2h7.6v7.6Zm-7.6,0V91.2H76v7.6Zm-22.8,0V91.2h7.6v7.6Zm-7.6,0V91.2h7.6v7.6Zm-7.6,0V91.2H38v7.6Zm-15.2,0V91.2h7.6v7.6Zm-7.6,0V91.2h7.6v7.6ZM152,91.2V83.6h7.6v7.6Zm-7.6,0V83.6H152v7.6Zm-7.6,0V83.6h7.6v7.6Zm-15.2,0V83.6h7.6v7.6Zm-7.6,0V83.6h7.6v7.6Zm-22.8,0V83.6h7.6v7.6Zm-7.6,0V83.6h7.6v7.6Zm-7.6,0V83.6h7.6v7.6Zm-7.6,0V83.6H76v7.6Zm-7.6,0V83.6h7.6v7.6ZM38,91.2V83.6h7.6v7.6Zm-15.2,0V83.6h7.6v7.6ZM0,91.2V83.6H7.6v7.6Zm174.8-7.6V76h7.6v7.6Zm-7.6,0V76h7.6v7.6Zm-7.6,0V76h7.6v7.6Zm-7.6,0V76h7.6v7.6Zm-15.2,0V76h7.6v7.6Zm-7.6,0V76h7.6v7.6Zm-22.8,0V76H114v7.6Zm-7.6,0V76h7.6v7.6Zm-7.6,0V76h7.6v7.6Zm-7.6,0V76h7.6v7.6Zm-22.8,0V76h7.6v7.6Zm-15.2,0V76h7.6v7.6Zm-15.2,0V76H38v7.6Zm-7.6,0V76h7.6v7.6Zm-7.6,0V76h7.6v7.6ZM182.4,76V68.4H190V76Zm-38,0V68.4H152V76Zm-7.6,0V68.4h7.6V76Zm-7.6,0V68.4h7.6V76Zm-7.6,0V68.4h7.6V76ZM114,76V68.4h7.6V76ZM60.8,76V68.4h7.6V76Zm-7.6,0V68.4h7.6V76ZM30.4,76V68.4H38V76Zm-7.6,0V68.4h7.6V76Zm-7.6,0V68.4h7.6V76ZM7.6,76V68.4h7.6V76ZM0,76V68.4H7.6V76Zm174.8-7.6V60.8h7.6v7.6Zm-7.6,0V60.8h7.6v7.6Zm-7.6,0V60.8h7.6v7.6Zm-15.2,0V60.8H152v7.6Zm-15.2,0V60.8h7.6v7.6Zm-38,0V60.8h7.6v7.6Zm-45.6,0V60.8h7.6v7.6Zm-30.4,0V60.8h7.6v7.6Zm-7.6,0V60.8h7.6v7.6Zm114-7.6V53.2h7.6v7.6Zm-7.6,0V53.2h7.6v7.6Zm-7.6,0V53.2H114v7.6Zm30.4-7.6V0H190V53.2Zm7.6-7.6h38V7.6h-38Zm-22.8,7.6V45.6h7.6v7.6Zm-15.2,0V45.6H114v7.6Zm-15.2,0V45.6h7.6v7.6ZM76,53.2V45.6h7.6v7.6Zm-15.2,0V45.6h7.6v7.6ZM0,53.2V0H53.2V53.2Zm7.6-7.6h38V7.6H7.6Zm91.2,0V38h7.6v7.6Zm-7.6,0V38h7.6v7.6Zm-7.6,0V38h7.6v7.6Zm-7.6,0V38h7.6v7.6Zm-7.6,0V38H76v7.6Zm-7.6,0V38h7.6v7.6ZM167.2,38V30.4h7.6V38Zm-7.6,0V30.4h7.6V38ZM152,38V30.4h7.6V38Zm-30.4,0V30.4h7.6V38ZM114,38V30.4h7.6V38Zm-7.6,0V30.4H114V38ZM91.2,38V30.4h7.6V38ZM30.4,38V30.4H38V38Zm-7.6,0V30.4h7.6V38Zm-7.6,0V30.4h7.6V38Zm152-7.6V22.8h7.6v7.6Zm-7.6,0V22.8h7.6v7.6Zm-7.6,0V22.8h7.6v7.6Zm-53.2,0V22.8h7.6v7.6ZM76,30.4V22.8h7.6v7.6Zm-15.2,0V22.8h7.6v7.6Zm-30.4,0V22.8H38v7.6Zm-7.6,0V22.8h7.6v7.6Zm-7.6,0V22.8h7.6v7.6Zm152-7.6V15.2h7.6v7.6Zm-7.6,0V15.2h7.6v7.6Zm-7.6,0V15.2h7.6v7.6Zm-45.6,0V15.2H114v7.6Zm-15.2,0V15.2h7.6v7.6Zm-7.6,0V15.2h7.6v7.6Zm-7.6,0V15.2h7.6v7.6Zm-15.2,0V15.2h7.6v7.6Zm-30.4,0V15.2H38v7.6Zm-7.6,0V15.2h7.6v7.6Zm-7.6,0V15.2h7.6v7.6Zm91.2-7.6V7.6H114v7.6Zm-7.6,0V7.6h7.6v7.6Zm-7.6,0V7.6h7.6v7.6Zm-7.6,0V7.6h7.6v7.6Zm-15.2,0V7.6H76v7.6Zm-7.6,0V7.6h7.6v7.6ZM114,7.6V0h7.6V7.6Zm-22.8,0V0h7.6V7.6ZM76,7.6V0h7.6V7.6Zm-7.6,0V0H76V7.6Z" fill="none"/>
    </clipPath>
  </defs>
  <rect id="사각형_6" data-name="사각형 6" width="190" height="190" fill="#fff"/>
  <g id="그룹_1" data-name="그룹 1" clip-path="url(#clip-path)">
    <rect id="사각형_7" data-name="사각형 7" width="190" height="190"/>
  </g>
</svg>
